<svg width="213" height="30" viewBox="0 0 213 30" fill="none" xmlns="http://www.w3.org/2000/svg">
<path d="M211.707 15.7071C212.098 15.3166 212.098 14.6834 211.707 14.2929L205.343 7.92895C204.953 7.53843 204.319 7.53843 203.929 7.92895C203.538 8.31947 203.538 8.95264 203.929 9.34316L209.586 15L203.929 20.6569C203.538 21.0474 203.538 21.6806 203.929 22.0711C204.319 22.4616 204.953 22.4616 205.343 22.0711L211.707 15.7071ZM-8.74228e-08 16L4.39583 16L4.39583 14L8.74228e-08 14L-8.74228e-08 16ZM13.1875 16L21.9792 16L21.9792 14L13.1875 14L13.1875 16ZM30.7708 16L39.5625 16L39.5625 14L30.7708 14L30.7708 16ZM48.3542 16L57.1458 16L57.1458 14L48.3542 14L48.3542 16ZM65.9375 16L74.7292 16L74.7292 14L65.9375 14L65.9375 16ZM83.5208 16L92.3125 16L92.3125 14L83.5208 14L83.5208 16ZM101.104 16L109.896 16L109.896 14L101.104 14L101.104 16ZM118.687 16L127.479 16L127.479 14L118.687 14L118.687 16ZM136.271 16L145.062 16L145.062 14L136.271 14L136.271 16ZM153.854 16L162.646 16L162.646 14L153.854 14L153.854 16ZM171.437 16L180.229 16L180.229 14L171.438 14L171.437 16ZM189.021 16L197.813 16L197.813 14L189.021 14L189.021 16ZM206.604 16L211 16L211 14L206.604 14L206.604 16ZM212.414 16.4142C213.195 15.6332 213.195 14.3669 212.414 13.5858L199.686 0.857882C198.905 0.076833 197.639 0.0768329 196.858 0.857882C196.077 1.63893 196.077 2.90526 196.858 3.68631L208.172 15L196.858 26.3137C196.077 27.0948 196.077 28.3611 196.858 29.1422C197.639 29.9232 198.905 29.9232 199.686 29.1422L212.414 16.4142ZM-1.74846e-07 17L4.39583 17L4.39583 13L1.74846e-07 13L-1.74846e-07 17ZM13.1875 17L21.9792 17L21.9792 13L13.1875 13L13.1875 17ZM30.7708 17L39.5625 17L39.5625 13L30.7708 13L30.7708 17ZM48.3542 17L57.1458 17L57.1458 13L48.3542 13L48.3542 17ZM65.9375 17L74.7292 17L74.7292 13L65.9375 13L65.9375 17ZM83.5208 17L92.3125 17L92.3125 13L83.5208 13L83.5208 17ZM101.104 17L109.896 17L109.896 13L101.104 13L101.104 17ZM118.687 17L127.479 17L127.479 13L118.687 13L118.687 17ZM136.271 17L145.062 17L145.062 13L136.271 13L136.271 17ZM153.854 17L162.646 17L162.646 13L153.854 13L153.854 17ZM171.437 17L180.229 17L180.229 13L171.438 13L171.437 17ZM189.021 17L197.813 17L197.813 13L189.021 13L189.021 17ZM206.604 17L211 17L211 13L206.604 13L206.604 17Z" fill="#90B5F8"/>
</svg>
