<svg width="17" height="17" viewBox="0 0 17 17" fill="none" xmlns="http://www.w3.org/2000/svg">
<path d="M8.5 17C13.1944 17 17 13.1944 17 8.5C17 3.80558 13.1944 0 8.5 0C3.80558 0 0 3.80558 0 8.5C0 13.1944 3.80558 17 8.5 17Z" fill="#259FDE"/>
<path d="M15.6188 3.86493L8.10156 11.6478L8.11485 12.4845H8.46016L16.6016 5.92353C16.3625 5.19308 16.0305 4.48916 15.6188 3.86493Z" fill="#1A73A0"/>
<path d="M16.8406 3.49302L15.3398 2.0055C15.1406 1.80627 14.8086 1.80627 14.5961 2.0055L8.1812 8.63288L5.40539 5.89693C5.20616 5.6977 4.87413 5.6977 4.66165 5.89693L3.3335 7.21179C3.13427 7.41102 3.13427 7.74305 3.3335 7.94228L7.76948 12.3384C7.88903 12.4579 8.0484 12.4977 8.20777 12.4844C8.36714 12.4977 8.52651 12.4579 8.64606 12.3384L16.8406 4.23676C17.0399 4.02424 17.0399 3.69222 16.8406 3.49302Z" fill="#F2F1EF"/>
<path d="M8.64644 12.3383L16.841 4.23672C17.0402 4.03748 17.0402 3.70546 16.841 3.50623L16.602 3.28046L8.19487 11.5414L3.54641 7.01252L3.34718 7.21175C3.14795 7.41098 3.14795 7.74301 3.34718 7.94224L7.78315 12.3384C7.9027 12.4579 8.06207 12.4977 8.22144 12.4844C8.36753 12.4977 8.5269 12.4579 8.64644 12.3383Z" fill="#E6E5E3"/>
</svg>
