<svg width="100" height="38" viewBox="0 0 100 38" fill="none" xmlns="http://www.w3.org/2000/svg">
<rect x="0.5" y="0.5" width="99" height="37" rx="9.5" stroke="#FD9E03"/>
<path d="M48.722 22.438C48.722 22.9327 48.596 23.376 48.344 23.768C48.092 24.1507 47.7513 24.454 47.322 24.678C46.902 24.8927 46.44 25 45.936 25H41.246V15.06H46.034C46.5007 15.06 46.902 15.186 47.238 15.438C47.5833 15.6807 47.8447 15.998 48.022 16.39C48.2087 16.7727 48.302 17.174 48.302 17.594C48.302 18.0887 48.176 18.546 47.924 18.966C47.672 19.386 47.322 19.6987 46.874 19.904C47.4433 20.072 47.8913 20.3847 48.218 20.842C48.554 21.2993 48.722 21.8313 48.722 22.438ZM47.742 22.27C47.742 21.934 47.6673 21.626 47.518 21.346C47.3687 21.0567 47.1633 20.8233 46.902 20.646C46.65 20.4687 46.3607 20.38 46.034 20.38H42.226V24.146H45.936C46.272 24.146 46.5753 24.0573 46.846 23.88C47.1167 23.7027 47.3313 23.474 47.49 23.194C47.658 22.9047 47.742 22.5967 47.742 22.27ZM42.226 15.914V19.582H45.642C45.9687 19.582 46.258 19.498 46.51 19.33C46.762 19.1527 46.9627 18.924 47.112 18.644C47.2613 18.364 47.336 18.0653 47.336 17.748C47.336 17.412 47.266 17.1087 47.126 16.838C46.986 16.558 46.7947 16.334 46.552 16.166C46.3093 15.998 46.034 15.914 45.726 15.914H42.226ZM50.3228 15.06L53.5708 19.386L56.8048 15.06H57.9108L54.1028 20.1L57.7988 25H56.6928L53.5708 20.814L50.4348 25H49.3148L53.0108 20.1L49.2028 15.06H50.3228ZM63.2285 25.07C62.5285 25.07 61.8938 24.93 61.3245 24.65C60.7552 24.37 60.2652 23.992 59.8545 23.516C59.4438 23.0307 59.1265 22.4893 58.9025 21.892C58.6785 21.2853 58.5665 20.6647 58.5665 20.03C58.5665 19.3673 58.6832 18.7373 58.9165 18.14C59.1498 17.5333 59.4765 16.9967 59.8965 16.53C60.3258 16.054 60.8252 15.6807 61.3945 15.41C61.9638 15.13 62.5798 14.99 63.2425 14.99C63.9425 14.99 64.5772 15.1347 65.1465 15.424C65.7158 15.7133 66.2012 16.1007 66.6025 16.586C67.0132 17.0713 67.3305 17.6127 67.5545 18.21C67.7785 18.8073 67.8905 19.4187 67.8905 20.044C67.8905 20.7067 67.7738 21.3413 67.5405 21.948C67.3072 22.5453 66.9805 23.082 66.5605 23.558C66.1405 24.0247 65.6458 24.3933 65.0765 24.664C64.5072 24.9347 63.8912 25.07 63.2285 25.07ZM59.5465 20.03C59.5465 20.5713 59.6352 21.094 59.8125 21.598C59.9898 22.0927 60.2418 22.536 60.5685 22.928C60.8952 23.3107 61.2825 23.6187 61.7305 23.852C62.1878 24.076 62.6872 24.188 63.2285 24.188C63.7978 24.188 64.3065 24.0713 64.7545 23.838C65.2118 23.5953 65.5992 23.278 65.9165 22.886C66.2432 22.4847 66.4905 22.0367 66.6585 21.542C66.8265 21.0473 66.9105 20.5433 66.9105 20.03C66.9105 19.4887 66.8218 18.9707 66.6445 18.476C66.4672 17.9813 66.2105 17.538 65.8745 17.146C65.5478 16.754 65.1605 16.446 64.7125 16.222C64.2645 15.998 63.7698 15.886 63.2285 15.886C62.6685 15.886 62.1598 16.0027 61.7025 16.236C61.2545 16.4693 60.8672 16.7867 60.5405 17.188C60.2232 17.58 59.9758 18.0233 59.7985 18.518C59.6305 19.0127 59.5465 19.5167 59.5465 20.03ZM69.0242 26.904V24.132H69.4442C69.7055 24.132 69.9342 24.0247 70.1302 23.81C70.3355 23.5953 70.5082 23.25 70.6482 22.774C70.7975 22.2887 70.9142 21.64 70.9982 20.828C71.0915 20.016 71.1569 19.008 71.1942 17.804L71.2642 15.06H77.2142V24.132H78.4042V26.904H77.5362V25H69.8922V26.904H69.0242ZM70.8442 24.132H76.2342V15.928H72.1602L72.1042 17.916C72.0762 19.176 72.0109 20.2307 71.9082 21.08C71.8149 21.92 71.6795 22.5873 71.5022 23.082C71.3249 23.5673 71.1055 23.9173 70.8442 24.132Z" fill="#FD9E03"/>
<path d="M29.8619 13.8618C28.8871 13.8618 27.9385 14.1361 27.1184 14.655C26.3209 15.1596 25.6777 15.8723 25.2583 16.7161L26.0585 17.1139C26.7815 15.6591 28.2389 14.7554 29.8619 14.7554C32.2024 14.7554 34.1065 16.6596 34.1065 19.0001C34.1065 21.3406 32.2024 23.2448 29.8619 23.2448C28.2389 23.2448 26.7815 22.3411 26.0585 20.8864L25.2583 21.2841C25.6777 22.1279 26.3209 22.8406 27.1184 23.3452C27.9385 23.8641 28.8871 24.1384 29.8619 24.1384C32.6951 24.1384 35.0002 21.8334 35.0002 19.0001C35.0002 16.1668 32.6951 13.8618 29.8619 13.8618Z" fill="#FD9E03"/>
<path d="M27.7585 20.4714L28.3904 21.1033L30.4936 19.0001L28.3904 16.897L27.7585 17.5288L28.783 18.5533H21V19.4469H28.783L27.7585 20.4714Z" fill="#FD9E03"/>
</svg>
